<svg viewBox="0 0 1000 1400" xmlns="http://www.w3.org/2000/svg"><rect width="1000" height="1400" fill="#b5a642"/><rect x="100" y="150" width="800" height="1100" rx="40" ry="40" fill="#b5a642" stroke="#9acd32" stroke-width="6"/><g stroke="#9acd32" stroke-width="6" fill="none"><circle cx="270" cy="430" r="7" fill="#9acd32"/><circle cx="330" cy="430" r="7" fill="#9acd32"/><circle cx="270" cy="470" r="7" fill="#9acd32"/><circle cx="330" cy="470" r="7" fill="#9acd32"/><circle cx="270" cy="510" r="7" fill="#9acd32"/><circle cx="330" cy="510" r="7" fill="#9acd32"/><circle cx="820" cy="1020" r="7" fill="#9acd32"/><circle cx="820" cy="1080" r="7" fill="#9acd32"/><circle cx="820" cy="1140" r="7" fill="#9acd32"/></g><g transform="translate(500, 700)"><rect x="-11" y="104" width="12" height="12" fill="#000" stroke="#000" stroke-width="1" transform="rotate(-10 1 116)" opacity="0.8"/><rect x="-5" y="-89" width="12" height="12" fill="#000" stroke="#000" stroke-width="1" transform="rotate(5 7 -77)" opacity="0.8"/><rect x="-135" y="-30" width="12" height="12" fill="#000" stroke="#000" stroke-width="1" transform="rotate(-3 -123 -18)" opacity="0.8"/><rect x="-46" y="-39" width="12" height="12" fill="#000" stroke="#000" stroke-width="1" transform="rotate(-6 -34 -27)" opacity="0.8"/><rect x="-173" y="-82" width="12" height="12" fill="#000" stroke="#000" stroke-width="1" transform="rotate(4 -161 -70)" opacity="0.8"/><rect x="32" y="-142" width="12" height="12" fill="#000" stroke="#000" stroke-width="1" transform="rotate(-5 44 -130)" opacity="0.8"/><rect x="-2" y="9" width="12" height="12" fill="#000" stroke="#000" stroke-width="1" transform="rotate(-3 10 21)" opacity="0.8"/><rect x="41" y="-27" width="12" height="12" fill="#000" stroke="#000" stroke-width="1" transform="rotate(-5 53 -15)" opacity="0.8"/></g><text x="500" y="1300" font-family="JetBrains Mono, monospace" font-size="24" font-weight="500" fill="#9acd32" text-anchor="middle">SLATE</text><text x="500" y="1330" font-family="Inter, sans-serif" font-size="16" fill="#9acd32" text-anchor="middle" opacity="0.7">Uncommon</text></svg>