<svg width="1000" height="1400" viewBox="0 0 1000 1400" xmlns="http://www.w3.org/2000/svg"><defs><linearGradient id="materialGrad" x1="0%" y1="0%" x2="100%" y2="100%"><stop offset="0%" style="stop-color:#878681;stop-opacity:1"/><stop offset="100%" style="stop-color:#2f4f4f;stop-opacity:1"/></linearGradient></defs><rect x="100" y="150" width="800" height="1100" rx="40" ry="40" fill="url(#materialGrad)" stroke="#000" stroke-width="4"/><rect x="120" y="170" width="760" height="1060" rx="30" ry="30" fill="#878681" opacity="0.3"/><g stroke="#2f4f4f" fill="#2f4f4f"><g transform="translate(300,400)"><path d="M0,-60 L-50,60 L50,60 Z" fill="none" stroke="#2f4f4f" stroke-width="6"/><rect x="-20" y="-20" width="40" height="40" fill="#2f4f4f" opacity="0.5"/><path d="M0,-60 L0,60" stroke="#2f4f4f" stroke-width="4"/></g><g transform="translate(750,1050)"><path d="M-20,20 L0,-20 L20,20" fill="#2f4f4f"/></g></g><circle cx="500" cy="516" r="12" fill="#000" opacity="0.8"/><circle cx="456" cy="463" r="12" fill="#000" opacity="0.8"/><circle cx="493" cy="610" r="12" fill="#000" opacity="0.8"/><circle cx="623" cy="560" r="12" fill="#000" opacity="0.8"/><circle cx="571" cy="717" r="12" fill="#000" opacity="0.8"/><circle cx="530" cy="666" r="12" fill="#000" opacity="0.8"/><circle cx="340" cy="618" r="12" fill="#000" opacity="0.8"/><circle cx="573" cy="718" r="12" fill="#000" opacity="0.8"/><circle cx="503" cy="824" r="12" fill="#000" opacity="0.8"/><circle cx="624" cy="672" r="12" fill="#000" opacity="0.8"/><circle cx="344" cy="611" r="12" fill="#000" opacity="0.8"/><circle cx="577" cy="715" r="12" fill="#000" opacity="0.8"/><circle cx="416" cy="615" r="12" fill="#000" opacity="0.8"/><circle cx="570" cy="718" r="12" fill="#000" opacity="0.8"/><circle cx="532" cy="661" r="12" fill="#000" opacity="0.8"/><circle cx="463" cy="670" r="12" fill="#000" opacity="0.8"/><circle cx="494" cy="519" r="12" fill="#000" opacity="0.8"/><circle cx="570" cy="621" r="12" fill="#000" opacity="0.8"/><circle cx="465" cy="761" r="12" fill="#000" opacity="0.8"/><circle cx="574" cy="510" r="12" fill="#000" opacity="0.8"/><circle cx="575" cy="610" r="12" fill="#000" opacity="0.8"/><circle cx="610" cy="560" r="12" fill="#000" opacity="0.8"/><rect x="100" y="150" width="800" height="1100" rx="40" ry="40" fill="none" stroke="#2f4f4f" stroke-width="2" opacity="0.8"/></svg>